<?xml version="1.0" encoding="UTF-8" standalone="no"?>
<svg
   xmlns:dc="http://purl.org/dc/elements/1.1/"
   xmlns:cc="http://creativecommons.org/ns#"
   xmlns:rdf="http://www.w3.org/1999/02/22-rdf-syntax-ns#"
   xmlns:svg="http://www.w3.org/2000/svg"
   xmlns="http://www.w3.org/2000/svg"
   xmlns:xlink="http://www.w3.org/1999/xlink"
   id="svg8"
   version="1.1"
   viewBox="0 0 270.93332 135.46667"
   height="512"
   width="1024">
  <defs
     id="defs2">
    <linearGradient
       id="linearGradient848">
      <stop
         id="stop844"
         offset="0"
         style="stop-color:#56c0d9;stop-opacity:1" />
      <stop
         id="stop846"
         offset="1"
         style="stop-color:#225f8a;stop-opacity:1" />
    </linearGradient>
    <radialGradient
       gradientTransform="matrix(-15.843766,-15.843798,15.843714,-15.843688,-4508.8455,4885.5645)"
       gradientUnits="userSpaceOnUse"
       r="2.1166666"
       fy="294.87302"
       fx="1.2248528"
       cy="294.87302"
       cx="1.2248528"
       id="radialGradient850"
       xlink:href="#linearGradient848" />
    <clipPath
       id="clipPath897"
       clipPathUnits="userSpaceOnUse">
      <g
         transform="translate(0,5.8333334e-6)"
         aria-label="E"
         style="font-style:normal;font-variant:normal;font-weight:normal;font-stretch:normal;font-size:9.75413513px;line-height:1.25;font-family:'Hoefler Text';-inkscape-font-specification:'Hoefler Text, Normal';font-variant-ligatures:normal;font-variant-caps:normal;font-variant-numeric:normal;font-feature-settings:normal;text-align:start;letter-spacing:1.21926689px;word-spacing:0px;writing-mode:lr-tb;text-anchor:start;fill:#ffffff;fill-opacity:1;stroke:none;stroke-width:0.24385335"
         id="g901">
        <path
           d="m 2.0843831,294.89737 q -0.1316808,0.28124 -0.2145909,0.53648 -0.6128849,-0.0195 -0.87299512,-0.0195 -0.25685889,0 -0.87136938,0.0195 -0.02601103,0 -0.02601103,-0.0455 0,-0.0406 0.02601103,-0.0439 0.1349322,-0.0163 0.20646252,-0.0423 0.0715303,-0.0276 0.099167,-0.0731 0.0292624,-0.0455 0.0292624,-0.15932 v -1.52977 q 0,-0.11217 -0.0276367,-0.15769 -0.026011,-0.0471 -0.0975414,-0.0748 -0.0715303,-0.0276 -0.2097139,-0.0439 -0.02601103,0 -0.02601103,-0.0455 0,-0.0455 0.02601103,-0.0455 0.40967366,0.0195 0.8388556,0.0195 0.43243328,0 0.84048128,-0.0195 0.037391,0.25198 0.1089212,0.49746 0,0.0325 -0.056899,0.0325 -0.027637,0 -0.034139,-0.0228 -0.120301,-0.38367 -0.5137178,-0.38367 H 0.98054019 q -0.18857994,0 -0.18857994,0.19509 v 0.72343 H 1.2016339 q 0.1625689,0 0.219468,-0.0748 0.058525,-0.0748 0.081284,-0.26499 0,-0.026 0.045519,-0.026 0.045519,0 0.045519,0.026 0,0.0813 -0.00975,0.20484 -0.00975,0.11867 -0.00975,0.19345 0,0.0764 0.00975,0.19509 0.00975,0.1268 0.00975,0.20808 0,0.026 -0.045519,0.026 -0.045519,0 -0.045519,-0.026 -0.024385,-0.19833 -0.086162,-0.27799 -0.060151,-0.0797 -0.214591,-0.0797 H 0.79196025 v 0.79984 q 0,0.19183 0.18857994,0.19183 H 1.3349404 q 0.193457,0 0.3836627,-0.12518 0.1902056,-0.1268 0.2796185,-0.31538 0.0065,-0.0146 0.027637,-0.0146 0.02276,0 0.040642,0.013 0.017883,0.0114 0.017883,0.0293 z"
           style="font-style:normal;font-variant:normal;font-weight:normal;font-stretch:normal;font-size:3.2513783px;font-family:'Hoefler Text';-inkscape-font-specification:'Hoefler Text, Normal';font-variant-ligatures:normal;font-variant-caps:normal;font-variant-numeric:normal;font-feature-settings:normal;text-align:start;writing-mode:lr-tb;text-anchor:start;fill:#ffffff;fill-opacity:1;stroke-width:0.24385335"
           id="path899" />
      </g>
    </clipPath>
  </defs>
  <metadata
     id="metadata5">
    <rdf:RDF>
      <cc:Work
         rdf:about="">
        <dc:format>image/svg+xml</dc:format>
        <dc:type
           rdf:resource="http://purl.org/dc/dcmitype/StillImage" />
        <dc:title></dc:title>
      </cc:Work>
    </rdf:RDF>
  </metadata>
  <g
     transform="translate(0,-161.53332)"
     id="layer1">
    <rect
       y="195.56686"
       x="118.70396"
       height="33.535938"
       width="33.535938"
       id="rect823"
       style="opacity:1;fill:url(#radialGradient850);fill-opacity:1;stroke:none;stroke-width:6.28798819;stroke-linecap:round;stroke-linejoin:round;stroke-miterlimit:4;stroke-dasharray:none;stroke-dashoffset:0;stroke-opacity:1;paint-order:stroke markers fill" />
    <g
       transform="matrix(8,0,0,8,133.35529,-2138.2653)"
       id="g940">
      <g
         id="g927">
        <g
           aria-label="E"
           style="font-style:normal;font-variant:normal;font-weight:normal;font-stretch:normal;font-size:9.75413513px;line-height:1.25;font-family:'Hoefler Text';-inkscape-font-specification:'Hoefler Text, Normal';font-variant-ligatures:normal;font-variant-caps:normal;font-variant-numeric:normal;font-feature-settings:normal;text-align:start;letter-spacing:1.21926689px;word-spacing:0px;writing-mode:lr-tb;text-anchor:start;fill:#146d94;fill-opacity:1;stroke:none;stroke-width:0.24385335"
           id="g921">
          <path
             d="m 2.0072689,295.00287 c -0.087787,0.18749 -0.1593175,0.36632 -0.214591,0.53647 -0.4085899,-0.013 -0.6995882,-0.0195 -0.87299504,-0.0195 -0.17123926,0 -0.46169572,0.007 -0.87136939,0.0195 -0.01734068,0 -0.02601102,-0.0152 -0.02601102,-0.0455 0,-0.0271 0.0086703,-0.0418 0.02601102,-0.0439 0.0899548,-0.0109 0.15877564,-0.025 0.20646252,-0.0423 0.0476869,-0.0184 0.0807425,-0.0428 0.099167,-0.0731 0.0195083,-0.0303 0.0292624,-0.0834 0.0292624,-0.15932 v -1.52977 c 0,-0.0748 -0.009212,-0.12735 -0.0276367,-0.1577 -0.0173407,-0.0314 -0.0498545,-0.0563 -0.0975414,-0.0748 -0.0476869,-0.0184 -0.1175915,-0.033 -0.2097139,-0.0439 -0.01734068,0 -0.02601102,-0.0152 -0.02601102,-0.0455 0,-0.0303 0.0086703,-0.0455 0.02601102,-0.0455 0.27311578,0.013 0.55273431,0.0195 0.8388556,0.0195 0.28828891,0 0.56844931,-0.007 0.84048131,-0.0195 0.024927,0.16799 0.061234,0.33381 0.1089211,0.49746 0,0.0217 -0.018966,0.0325 -0.056899,0.0325 -0.018425,0 -0.029804,-0.008 -0.034139,-0.0228 -0.080201,-0.25578 -0.2514399,-0.38367 -0.5137177,-0.38367 H 0.90342596 c -0.12571996,0 -0.18857994,0.065 -0.18857994,0.19509 v 0.72343 H 1.1245197 c 0.1083793,0 0.1815353,-0.0249 0.219468,-0.0748 0.039017,-0.0499 0.066111,-0.1382 0.081284,-0.26499 0,-0.0173 0.015173,-0.026 0.045519,-0.026 0.030346,0 0.045519,0.009 0.045519,0.026 0,0.0542 -0.00325,0.12248 -0.00975,0.20484 -0.0065,0.0791 -0.00975,0.1436 -0.00975,0.19345 0,0.0509 0.00325,0.11596 0.00975,0.19509 0.0065,0.0845 0.00975,0.15389 0.00975,0.20808 0,0.0173 -0.015173,0.026 -0.045519,0.026 -0.030346,0 -0.045519,-0.009 -0.045519,-0.026 -0.016257,-0.13222 -0.044977,-0.22488 -0.086162,-0.27799 -0.040101,-0.0531 -0.111631,-0.0797 -0.214591,-0.0797 H 0.71484602 v 0.79984 c 0,0.12789 0.06286,0.19183 0.18857994,0.19183 H 1.2578262 c 0.1289713,0 0.2568589,-0.0417 0.3836626,-0.12518 0.104931,-0.07 0.1868555,-0.15401 0.2457734,-0.25216 0.025243,-0.0269 0.043432,-0.0519 0.061482,-0.0778 0.015173,0 0.028721,0.004 0.040642,0.013 0.011922,0.008 0.017883,0.0174 0.017883,0.0293 z"
             style="font-style:normal;font-variant:normal;font-weight:normal;font-stretch:normal;font-size:3.2513783px;font-family:'Hoefler Text';-inkscape-font-specification:'Hoefler Text, Normal';font-variant-ligatures:normal;font-variant-caps:normal;font-variant-numeric:normal;font-feature-settings:normal;text-align:start;writing-mode:lr-tb;text-anchor:start;fill:#146d94;fill-opacity:1;stroke-width:0.24385335"
             id="path919" />
        </g>
        <g
           aria-label="E"
           style="font-style:normal;font-variant:normal;font-weight:normal;font-stretch:normal;font-size:9.75413513px;line-height:1.25;font-family:'Hoefler Text';-inkscape-font-specification:'Hoefler Text, Normal';font-variant-ligatures:normal;font-variant-caps:normal;font-variant-numeric:normal;font-feature-settings:normal;text-align:start;letter-spacing:1.21926689px;word-spacing:0px;writing-mode:lr-tb;text-anchor:start;fill:#ffffff;fill-opacity:1;stroke:none;stroke-width:0.24385335"
           id="g925">
          <path
             d="m 2.0843831,294.89737 q -0.1316808,0.28124 -0.2145909,0.53648 -0.6128849,-0.0195 -0.87299512,-0.0195 -0.25685889,0 -0.87136938,0.0195 -0.02601103,0 -0.02601103,-0.0455 0,-0.0406 0.02601103,-0.0439 0.1349322,-0.0163 0.20646252,-0.0423 0.0715303,-0.0276 0.099167,-0.0731 0.0292624,-0.0455 0.0292624,-0.15932 v -1.52977 q 0,-0.11217 -0.0276367,-0.15769 -0.026011,-0.0471 -0.0975414,-0.0748 -0.0715303,-0.0276 -0.2097139,-0.0439 -0.02601103,0 -0.02601103,-0.0455 0,-0.0455 0.02601103,-0.0455 0.40967366,0.0195 0.8388556,0.0195 0.43243328,0 0.84048128,-0.0195 0.037391,0.25198 0.1089212,0.49746 0,0.0325 -0.056899,0.0325 -0.027637,0 -0.034139,-0.0228 -0.120301,-0.38367 -0.5137178,-0.38367 H 0.98054019 q -0.18857994,0 -0.18857994,0.19509 v 0.72343 H 1.2016339 q 0.1625689,0 0.219468,-0.0748 0.058525,-0.0748 0.081284,-0.26499 0,-0.026 0.045519,-0.026 0.045519,0 0.045519,0.026 0,0.0813 -0.00975,0.20484 -0.00975,0.11867 -0.00975,0.19345 0,0.0764 0.00975,0.19509 0.00975,0.1268 0.00975,0.20808 0,0.026 -0.045519,0.026 -0.045519,0 -0.045519,-0.026 -0.024385,-0.19833 -0.086162,-0.27799 -0.060151,-0.0797 -0.214591,-0.0797 H 0.79196025 v 0.79984 q 0,0.19183 0.18857994,0.19183 H 1.3349404 q 0.193457,0 0.3836627,-0.12518 0.1902056,-0.1268 0.2796185,-0.31538 0.0065,-0.0146 0.027637,-0.0146 0.02276,0 0.040642,0.013 0.017883,0.0114 0.017883,0.0293 z"
             style="font-style:normal;font-variant:normal;font-weight:normal;font-stretch:normal;font-size:3.2513783px;font-family:'Hoefler Text';-inkscape-font-specification:'Hoefler Text, Normal';font-variant-ligatures:normal;font-variant-caps:normal;font-variant-numeric:normal;font-feature-settings:normal;text-align:start;writing-mode:lr-tb;text-anchor:start;fill:#ffffff;fill-opacity:1;stroke-width:0.24385335"
             id="path923" />
        </g>
      </g>
      <g
         clip-path="url(#clipPath897)"
         id="g931"
         style="font-style:normal;font-variant:normal;font-weight:normal;font-stretch:normal;font-size:9.75413513px;line-height:1.25;font-family:'Hoefler Text';-inkscape-font-specification:'Hoefler Text, Normal';font-variant-ligatures:normal;font-variant-caps:normal;font-variant-numeric:normal;font-feature-settings:normal;text-align:start;letter-spacing:1.21926689px;word-spacing:0px;writing-mode:lr-tb;text-anchor:start;fill:#ccd7d6;fill-opacity:1;stroke:none;stroke-width:0.24385335"
         aria-label="E">
        <path
           id="path929"
           style="font-style:normal;font-variant:normal;font-weight:normal;font-stretch:normal;font-size:3.2513783px;font-family:'Hoefler Text';-inkscape-font-specification:'Hoefler Text, Normal';font-variant-ligatures:normal;font-variant-caps:normal;font-variant-numeric:normal;font-feature-settings:normal;text-align:start;writing-mode:lr-tb;text-anchor:start;fill:#ccd7d6;fill-opacity:1;stroke-width:0.24385335"
           d="m 2.0072689,295.00287 q -0.1316808,0.28124 -0.214591,0.53647 -0.6128848,-0.0195 -0.87299504,-0.0195 -0.25685889,0 -0.87136939,0.0195 -0.02601102,0 -0.02601102,-0.0455 0,-0.0407 0.02601102,-0.0439 0.1349322,-0.0163 0.20646252,-0.0423 0.0715303,-0.0276 0.099167,-0.0731 0.0292624,-0.0455 0.0292624,-0.15932 v -1.52977 q 0,-0.11218 -0.0276367,-0.1577 -0.026011,-0.0471 -0.0975414,-0.0748 -0.0715303,-0.0276 -0.2097139,-0.0439 -0.02601102,0 -0.02601102,-0.0455 0,-0.0455 0.02601102,-0.0455 0.40967367,0.0195 0.8388556,0.0195 0.43243331,0 0.84048131,-0.0195 0.037391,0.25198 0.1089211,0.49746 0,0.0325 -0.056899,0.0325 -0.027637,0 -0.034139,-0.0228 -0.120301,-0.38367 -0.5137177,-0.38367 H 0.90342596 q -0.18857994,0 -0.18857994,0.19509 v 0.72343 H 1.1245197 q 0.1625689,0 0.219468,-0.0748 0.058525,-0.0748 0.081284,-0.26499 0,-0.026 0.045519,-0.026 0.045519,0 0.045519,0.026 0,0.0813 -0.00975,0.20484 -0.00975,0.11867 -0.00975,0.19345 0,0.0764 0.00975,0.19509 0.00975,0.1268 0.00975,0.20808 0,0.026 -0.045519,0.026 -0.045519,0 -0.045519,-0.026 -0.024385,-0.19833 -0.086162,-0.27799 -0.060151,-0.0797 -0.214591,-0.0797 H 0.71484602 v 0.79984 q 0,0.19183 0.18857994,0.19183 H 1.2578262 q 0.193457,0 0.3836626,-0.12518 0.1902057,-0.1268 0.2796186,-0.31538 0.0065,-0.0146 0.027637,-0.0146 0.02276,0 0.040642,0.013 0.017883,0.0114 0.017883,0.0293 z" />
      </g>
    </g>
    <g
       transform="matrix(8,0,0,8,118.53859,-2146.7319)"
       id="g907">
      <g
         aria-label="E"
         style="font-style:normal;font-variant:normal;font-weight:normal;font-stretch:normal;font-size:9.75413513px;line-height:1.25;font-family:'Hoefler Text';-inkscape-font-specification:'Hoefler Text, Normal';font-variant-ligatures:normal;font-variant-caps:normal;font-variant-numeric:normal;font-feature-settings:normal;text-align:start;letter-spacing:1.21926689px;word-spacing:0px;writing-mode:lr-tb;text-anchor:start;fill:#146d94;fill-opacity:1;stroke:none;stroke-width:0.24385335"
         id="text906">
        <path
           d="m 2.0072689,295.00287 c -0.087787,0.18749 -0.1593175,0.36632 -0.214591,0.53647 -0.4085899,-0.013 -0.6995882,-0.0195 -0.87299504,-0.0195 -0.17123926,0 -0.46169572,0.007 -0.87136939,0.0195 -0.01734068,0 -0.02601102,-0.0152 -0.02601102,-0.0455 0,-0.0271 0.0086703,-0.0418 0.02601102,-0.0439 0.0899548,-0.0109 0.15877564,-0.025 0.20646252,-0.0423 0.0476869,-0.0184 0.0807425,-0.0428 0.099167,-0.0731 0.0195083,-0.0303 0.0292624,-0.0834 0.0292624,-0.15932 v -1.52977 c 0,-0.0748 -0.009212,-0.12735 -0.0276367,-0.1577 -0.0173407,-0.0314 -0.0498545,-0.0563 -0.0975414,-0.0748 -0.0476869,-0.0184 -0.1175915,-0.033 -0.2097139,-0.0439 -0.01734068,0 -0.02601102,-0.0152 -0.02601102,-0.0455 0,-0.0303 0.0086703,-0.0455 0.02601102,-0.0455 0.27311578,0.013 0.55273431,0.0195 0.8388556,0.0195 0.28828891,0 0.56844931,-0.007 0.84048131,-0.0195 0.024927,0.16799 0.061234,0.33381 0.1089211,0.49746 0,0.0217 -0.018966,0.0325 -0.056899,0.0325 -0.018425,0 -0.029804,-0.008 -0.034139,-0.0228 -0.080201,-0.25578 -0.2514399,-0.38367 -0.5137177,-0.38367 H 0.90342596 c -0.12571996,0 -0.18857994,0.065 -0.18857994,0.19509 v 0.72343 H 1.1245197 c 0.1083793,0 0.1815353,-0.0249 0.219468,-0.0748 0.039017,-0.0499 0.066111,-0.1382 0.081284,-0.26499 0,-0.0173 0.015173,-0.026 0.045519,-0.026 0.030346,0 0.045519,0.009 0.045519,0.026 0,0.0542 -0.00325,0.12248 -0.00975,0.20484 -0.0065,0.0791 -0.00975,0.1436 -0.00975,0.19345 0,0.0509 0.00325,0.11596 0.00975,0.19509 0.0065,0.0845 0.00975,0.15389 0.00975,0.20808 0,0.0173 -0.015173,0.026 -0.045519,0.026 -0.030346,0 -0.045519,-0.009 -0.045519,-0.026 -0.016257,-0.13222 -0.044977,-0.22488 -0.086162,-0.27799 -0.040101,-0.0531 -0.111631,-0.0797 -0.214591,-0.0797 H 0.71484602 v 0.79984 c 0,0.12789 0.06286,0.19183 0.18857994,0.19183 H 1.2578262 c 0.1289713,0 0.2568589,-0.0417 0.3836626,-0.12518 0.104931,-0.07 0.1868555,-0.15401 0.2457734,-0.25216 0.025243,-0.0269 0.043432,-0.0519 0.061482,-0.0778 0.015173,0 0.028721,0.004 0.040642,0.013 0.011922,0.008 0.017883,0.0174 0.017883,0.0293 z"
           style="font-style:normal;font-variant:normal;font-weight:normal;font-stretch:normal;font-size:3.2513783px;font-family:'Hoefler Text';-inkscape-font-specification:'Hoefler Text, Normal';font-variant-ligatures:normal;font-variant-caps:normal;font-variant-numeric:normal;font-feature-settings:normal;text-align:start;writing-mode:lr-tb;text-anchor:start;fill:#146d94;fill-opacity:1;stroke-width:0.24385335"
           id="path846" />
      </g>
      <g
         aria-label="E"
         style="font-style:normal;font-variant:normal;font-weight:normal;font-stretch:normal;font-size:9.75413513px;line-height:1.25;font-family:'Hoefler Text';-inkscape-font-specification:'Hoefler Text, Normal';font-variant-ligatures:normal;font-variant-caps:normal;font-variant-numeric:normal;font-feature-settings:normal;text-align:start;letter-spacing:1.21926689px;word-spacing:0px;writing-mode:lr-tb;text-anchor:start;fill:#ffffff;fill-opacity:1;stroke:none;stroke-width:0.24385335"
         id="text910">
        <path
           d="m 2.0843831,294.89737 q -0.1316808,0.28124 -0.2145909,0.53648 -0.6128849,-0.0195 -0.87299512,-0.0195 -0.25685889,0 -0.87136938,0.0195 -0.02601103,0 -0.02601103,-0.0455 0,-0.0406 0.02601103,-0.0439 0.1349322,-0.0163 0.20646252,-0.0423 0.0715303,-0.0276 0.099167,-0.0731 0.0292624,-0.0455 0.0292624,-0.15932 v -1.52977 q 0,-0.11217 -0.0276367,-0.15769 -0.026011,-0.0471 -0.0975414,-0.0748 -0.0715303,-0.0276 -0.2097139,-0.0439 -0.02601103,0 -0.02601103,-0.0455 0,-0.0455 0.02601103,-0.0455 0.40967366,0.0195 0.8388556,0.0195 0.43243328,0 0.84048128,-0.0195 0.037391,0.25198 0.1089212,0.49746 0,0.0325 -0.056899,0.0325 -0.027637,0 -0.034139,-0.0228 -0.120301,-0.38367 -0.5137178,-0.38367 H 0.98054019 q -0.18857994,0 -0.18857994,0.19509 v 0.72343 H 1.2016339 q 0.1625689,0 0.219468,-0.0748 0.058525,-0.0748 0.081284,-0.26499 0,-0.026 0.045519,-0.026 0.045519,0 0.045519,0.026 0,0.0813 -0.00975,0.20484 -0.00975,0.11867 -0.00975,0.19345 0,0.0764 0.00975,0.19509 0.00975,0.1268 0.00975,0.20808 0,0.026 -0.045519,0.026 -0.045519,0 -0.045519,-0.026 -0.024385,-0.19833 -0.086162,-0.27799 -0.060151,-0.0797 -0.214591,-0.0797 H 0.79196025 v 0.79984 q 0,0.19183 0.18857994,0.19183 H 1.3349404 q 0.193457,0 0.3836627,-0.12518 0.1902056,-0.1268 0.2796185,-0.31538 0.0065,-0.0146 0.027637,-0.0146 0.02276,0 0.040642,0.013 0.017883,0.0114 0.017883,0.0293 z"
           style="font-style:normal;font-variant:normal;font-weight:normal;font-stretch:normal;font-size:3.2513783px;font-family:'Hoefler Text';-inkscape-font-specification:'Hoefler Text, Normal';font-variant-ligatures:normal;font-variant-caps:normal;font-variant-numeric:normal;font-feature-settings:normal;text-align:start;writing-mode:lr-tb;text-anchor:start;fill:#ffffff;fill-opacity:1;stroke-width:0.24385335"
           id="path843" />
      </g>
    </g>
    <g
       transform="matrix(8,0,0,8,118.53859,-2146.7319)"
       clip-path="url(#clipPath897)"
       id="text914"
       style="font-style:normal;font-variant:normal;font-weight:normal;font-stretch:normal;font-size:9.75413513px;line-height:1.25;font-family:'Hoefler Text';-inkscape-font-specification:'Hoefler Text, Normal';font-variant-ligatures:normal;font-variant-caps:normal;font-variant-numeric:normal;font-feature-settings:normal;text-align:start;letter-spacing:1.21926689px;word-spacing:0px;writing-mode:lr-tb;text-anchor:start;fill:#ccd7d6;fill-opacity:1;stroke:none;stroke-width:0.24385335"
       aria-label="E">
      <path
         id="path840"
         style="font-style:normal;font-variant:normal;font-weight:normal;font-stretch:normal;font-size:3.2513783px;font-family:'Hoefler Text';-inkscape-font-specification:'Hoefler Text, Normal';font-variant-ligatures:normal;font-variant-caps:normal;font-variant-numeric:normal;font-feature-settings:normal;text-align:start;writing-mode:lr-tb;text-anchor:start;fill:#ccd7d6;fill-opacity:1;stroke-width:0.24385335"
         d="m 2.0072689,295.00287 q -0.1316808,0.28124 -0.214591,0.53647 -0.6128848,-0.0195 -0.87299504,-0.0195 -0.25685889,0 -0.87136939,0.0195 -0.02601102,0 -0.02601102,-0.0455 0,-0.0407 0.02601102,-0.0439 0.1349322,-0.0163 0.20646252,-0.0423 0.0715303,-0.0276 0.099167,-0.0731 0.0292624,-0.0455 0.0292624,-0.15932 v -1.52977 q 0,-0.11218 -0.0276367,-0.1577 -0.026011,-0.0471 -0.0975414,-0.0748 -0.0715303,-0.0276 -0.2097139,-0.0439 -0.02601102,0 -0.02601102,-0.0455 0,-0.0455 0.02601102,-0.0455 0.40967367,0.0195 0.8388556,0.0195 0.43243331,0 0.84048131,-0.0195 0.037391,0.25198 0.1089211,0.49746 0,0.0325 -0.056899,0.0325 -0.027637,0 -0.034139,-0.0228 -0.120301,-0.38367 -0.5137177,-0.38367 H 0.90342596 q -0.18857994,0 -0.18857994,0.19509 v 0.72343 H 1.1245197 q 0.1625689,0 0.219468,-0.0748 0.058525,-0.0748 0.081284,-0.26499 0,-0.026 0.045519,-0.026 0.045519,0 0.045519,0.026 0,0.0813 -0.00975,0.20484 -0.00975,0.11867 -0.00975,0.19345 0,0.0764 0.00975,0.19509 0.00975,0.1268 0.00975,0.20808 0,0.026 -0.045519,0.026 -0.045519,0 -0.045519,-0.026 -0.024385,-0.19833 -0.086162,-0.27799 -0.060151,-0.0797 -0.214591,-0.0797 H 0.71484602 v 0.79984 q 0,0.19183 0.18857994,0.19183 H 1.2578262 q 0.193457,0 0.3836626,-0.12518 0.1902057,-0.1268 0.2796186,-0.31538 0.0065,-0.0146 0.027637,-0.0146 0.02276,0 0.040642,0.013 0.017883,0.0114 0.017883,0.0293 z" />
    </g>
    <g
       transform="translate(33.866667,4.2333334)"
       id="text918"
       style="font-style:normal;font-weight:normal;font-size:84.66666412px;line-height:1.25;font-family:sans-serif;letter-spacing:10.56216621px;word-spacing:0px;fill:#146d94;fill-opacity:1;stroke:none;stroke-width:2.11666656"
       aria-label="Erich Erstu">
      <path
         id="path1076"
         style="font-style:normal;font-variant:normal;font-weight:normal;font-stretch:normal;font-size:16.93333244px;font-family:'Hoefler Text';-inkscape-font-specification:'Hoefler Text, Normal';font-variant-ligatures:normal;font-variant-caps:normal;font-variant-numeric:normal;font-feature-settings:normal;text-align:center;letter-spacing:2.98449993px;writing-mode:lr-tb;text-anchor:middle;fill:#146d94;fill-opacity:1;stroke-width:2.11666656"
         d="m 54.661703,262.02577 q -0.6858,1.46473 -1.1176,2.794 -3.191933,-0.1016 -4.546599,-0.1016 -1.337734,0 -4.538134,0.1016 -0.135466,0 -0.135466,-0.23707 0,-0.21166 0.135466,-0.2286 0.702734,-0.0847 1.075267,-0.22013 0.372533,-0.14393 0.516467,-0.381 0.1524,-0.23707 0.1524,-0.82973 v -7.96714 q 0,-0.5842 -0.143934,-0.82126 -0.135466,-0.24554 -0.508,-0.38947 -0.372533,-0.14393 -1.0922,-0.2286 -0.135466,0 -0.135466,-0.23707 0,-0.23706 0.135466,-0.23706 2.1336,0.1016 4.3688,0.1016 2.252133,0 4.377267,-0.1016 0.194733,1.31233 0.567266,2.5908 0,0.16933 -0.296333,0.16933 -0.143933,0 -0.1778,-0.11853 -0.626533,-1.99814 -2.675467,-1.99814 h -1.710266 q -0.982133,0 -0.982133,1.016 v 3.76767 h 2.133599 q 0.846667,0 1.143,-0.38947 0.3048,-0.38946 0.423334,-1.38006 0,-0.13547 0.237066,-0.13547 0.237067,0 0.237067,0.13547 0,0.42333 -0.0508,1.0668 -0.0508,0.61806 -0.0508,1.00753 0,0.39793 0.0508,1.016 0.0508,0.6604 0.0508,1.08373 0,0.13547 -0.237067,0.13547 -0.237066,0 -0.237066,-0.13547 -0.127,-1.03293 -0.448734,-1.4478 -0.313266,-0.41486 -1.1176,-0.41486 h -2.133599 v 4.1656 q 0,0.99906 0.982133,0.99906 h 1.845733 q 1.007533,0 1.998133,-0.65193 0.9906,-0.6604 1.456267,-1.64253 0.03387,-0.0762 0.143933,-0.0762 0.118534,0 0.211667,0.0677 0.09313,0.0593 0.09313,0.1524 z" />
      <path
         id="path1078"
         style="font-style:normal;font-variant:normal;font-weight:normal;font-stretch:normal;font-size:16.93333244px;font-family:'Hoefler Text';-inkscape-font-specification:'Hoefler Text, Normal';font-variant-ligatures:normal;font-variant-caps:normal;font-variant-numeric:normal;font-feature-settings:normal;text-align:center;letter-spacing:2.98449993px;writing-mode:lr-tb;text-anchor:middle;fill:#146d94;fill-opacity:1;stroke-width:2.11666656"
         d="m 64.14012,258.09724 q 0,0.33866 -0.211667,0.57573 -0.2032,0.23707 -0.499533,0.23707 -0.372533,0 -0.7366,-0.24554 -0.287866,-0.19473 -0.499533,-0.19473 -0.550333,0 -1.134533,0.64347 v 3.81 q 0,0.7366 0.254,1.03293 0.254,0.28787 1.083733,0.39793 0.135467,0.0169 0.135467,0.2286 0,0.23707 -0.135467,0.23707 -0.347133,0 -0.982133,-0.0508 -0.702734,-0.0508 -1.1176,-0.0508 -0.423334,0 -1.024467,0.0508 -0.541867,0.0508 -0.889,0.0508 -0.135467,0 -0.135467,-0.23707 0,-0.21166 0.135467,-0.2286 0.7366,-0.0931 0.9398,-0.34713 0.211667,-0.254 0.211667,-1.08373 v -3.13267 q 0,-0.67733 -0.1778,-0.889 -0.169334,-0.21167 -0.770467,-0.2794 -0.135467,0 -0.135467,-0.22013 0,-0.2032 0.135467,-0.2032 0.8382,-0.21167 1.380067,-0.46567 0.550333,-0.26247 0.719666,-0.44873 0.1016,-0.1016 0.2032,-0.1016 0.237067,0 0.237067,0.13546 l -0.06773,1.0668 q 0.677333,-0.62653 1.159933,-0.88053 0.491067,-0.254 0.973667,-0.254 0.389466,0 0.668866,0.254 0.2794,0.254 0.2794,0.59267 z" />
      <path
         id="path1080"
         style="font-style:normal;font-variant:normal;font-weight:normal;font-stretch:normal;font-size:16.93333244px;font-family:'Hoefler Text';-inkscape-font-specification:'Hoefler Text, Normal';font-variant-ligatures:normal;font-variant-caps:normal;font-variant-numeric:normal;font-feature-settings:normal;text-align:center;letter-spacing:2.98449993px;writing-mode:lr-tb;text-anchor:middle;fill:#146d94;fill-opacity:1;stroke-width:2.11666656"
         d="m 70.443549,254.3465 q 0,0.3556 -0.262467,0.61807 -0.254,0.26247 -0.618066,0.26247 -0.364067,0 -0.626534,-0.26247 -0.254,-0.26247 -0.254,-0.61807 0,-0.37253 0.254,-0.62653 0.254,-0.254 0.626534,-0.254 0.364066,0 0.618066,0.254 0.262467,0.254 0.262467,0.62653 z m 1.185333,10.2362 q 0,0.23707 -0.135467,0.23707 -0.347133,0 -0.889,-0.0508 -0.609599,-0.0508 -1.024466,-0.0508 -0.423333,0 -1.016,0.0508 -0.5334,0.0508 -0.880533,0.0508 -0.135467,0 -0.135467,-0.23707 0,-0.21166 0.135467,-0.2286 0.719666,-0.0931 0.922866,-0.34713 0.211667,-0.254 0.211667,-1.08373 v -3.13267 q 0,-0.67733 -0.1778,-0.889 -0.169333,-0.21167 -0.753533,-0.2794 -0.135467,0 -0.135467,-0.22013 0,-0.2032 0.135467,-0.2032 0.889,-0.2286 1.456266,-0.4826 0.567267,-0.26247 0.7112,-0.4318 0.08467,-0.1016 0.186267,-0.1016 0.237066,0 0.237066,0.13546 -0.135466,1.89654 -0.135466,2.9464 v 2.65854 q 0,0.82973 0.2032,1.08373 0.211666,0.254 0.948266,0.34713 0.135467,0.0169 0.135467,0.2286 z" />
      <path
         id="path1082"
         style="font-style:normal;font-variant:normal;font-weight:normal;font-stretch:normal;font-size:16.93333244px;font-family:'Hoefler Text';-inkscape-font-specification:'Hoefler Text, Normal';font-variant-ligatures:normal;font-variant-caps:normal;font-variant-numeric:normal;font-feature-settings:normal;text-align:center;letter-spacing:2.98449993px;writing-mode:lr-tb;text-anchor:middle;fill:#146d94;fill-opacity:1;stroke-width:2.11666656"
         d="m 81.979362,258.5883 q 0,0.69427 -0.694267,0.69427 -0.296333,0 -0.491067,-0.127 -0.186266,-0.127 -0.381,-0.55033 -0.2286,-0.49954 -0.491066,-0.65194 -0.254,-0.16086 -0.668867,-0.16086 -1.024467,0 -1.566333,0.85513 -0.5334,0.84667 -0.5334,2.48073 0,1.36314 0.677333,2.20134 0.677333,0.82973 1.811867,0.82973 1.286933,0 2.040466,-0.80433 l 0.04233,-0.0169 q 0.0762,0 0.143933,0.1016 0.0762,0.0931 0.0762,0.21167 0,0.16933 -0.499533,0.5842 -0.491067,0.41487 -1.083734,0.62653 -0.5842,0.21167 -1.2446,0.21167 -1.515533,0 -2.599266,-1.10913 -1.075267,-1.1176 -1.075267,-2.8194 0,-1.68487 1.126067,-2.78554 1.134533,-1.10913 2.683933,-1.10913 1.143,0 1.9304,0.39793 0.795867,0.38947 0.795867,0.9398 z" />
      <path
         id="path1084"
         style="font-style:normal;font-variant:normal;font-weight:normal;font-stretch:normal;font-size:16.93333244px;font-family:'Hoefler Text';-inkscape-font-specification:'Hoefler Text, Normal';font-variant-ligatures:normal;font-variant-caps:normal;font-variant-numeric:normal;font-feature-settings:normal;text-align:center;letter-spacing:2.98449993px;writing-mode:lr-tb;text-anchor:middle;fill:#146d94;fill-opacity:1;stroke-width:2.11666656"
         d="m 94.96299,264.5827 q 0,0.23707 -0.135467,0.23707 -0.338666,0 -0.838199,-0.0508 -0.541867,-0.0508 -0.948267,-0.0508 -0.423333,0 -0.973667,0.0508 -0.499533,0.0508 -0.8382,0.0508 -0.135466,0 -0.135466,-0.23707 0,-0.21166 0.135466,-0.2286 0.5842,-0.0677 0.762,-0.3302 0.186267,-0.26246 0.186267,-1.10066 v -2.82787 q 0,-1.8288 -1.659467,-1.8288 -1.049866,0 -1.811866,0.84667 v 3.81 q 0,0.762 0.220133,1.05833 0.220133,0.29633 0.8636,0.37253 0.135467,0.0169 0.135467,0.2286 0,0.23707 -0.135467,0.23707 -0.347133,0 -0.905933,-0.0508 -0.626533,-0.0508 -1.0414,-0.0508 -0.423333,0 -0.9652,0.0508 -0.4826,0.0508 -0.829733,0.0508 -0.135467,0 -0.135467,-0.23707 0,-0.21166 0.135467,-0.2286 0.7112,-0.0762 0.922866,-0.3302 0.211667,-0.26246 0.211667,-1.10066 v -7.86554 q 0,-0.6858 -0.169333,-0.89746 -0.160867,-0.21167 -0.762,-0.2794 -0.135467,-0.0169 -0.135467,-0.21167 0,-0.22013 0.135467,-0.22013 1.4478,-0.33867 2.142066,-0.89747 0.127,-0.1016 0.211667,-0.1016 0.237066,0 0.237066,0.13547 -0.135466,1.38853 -0.135466,2.9464 v 2.8702 q 1.210733,-1.15147 2.3876,-1.15147 1.202266,0 1.888066,0.6604 0.694267,0.6604 0.694267,1.778 v 3.23427 q 0,0.82973 0.211667,1.0922 0.220133,0.254 0.939799,0.33866 0.135467,0.0169 0.135467,0.2286 z" />
      <path
         id="path1086"
         style="font-style:normal;font-variant:normal;font-weight:normal;font-stretch:normal;font-size:16.93333244px;font-family:'Hoefler Text';-inkscape-font-specification:'Hoefler Text, Normal';font-variant-ligatures:normal;font-variant-caps:normal;font-variant-numeric:normal;font-feature-settings:normal;text-align:center;letter-spacing:2.98449993px;writing-mode:lr-tb;text-anchor:middle;fill:#146d94;fill-opacity:1;stroke-width:2.11666656"
         d="m 116.07034,262.02577 q -0.6858,1.46473 -1.1176,2.794 -3.19193,-0.1016 -4.5466,-0.1016 -1.33773,0 -4.53813,0.1016 -0.13547,0 -0.13547,-0.23707 0,-0.21166 0.13547,-0.2286 0.70273,-0.0847 1.07527,-0.22013 0.37253,-0.14393 0.51646,-0.381 0.1524,-0.23707 0.1524,-0.82973 v -7.96714 q 0,-0.5842 -0.14393,-0.82126 -0.13547,-0.24554 -0.508,-0.38947 -0.37253,-0.14393 -1.0922,-0.2286 -0.13547,0 -0.13547,-0.23707 0,-0.23706 0.13547,-0.23706 2.1336,0.1016 4.3688,0.1016 2.25213,0 4.37726,-0.1016 0.19474,1.31233 0.56727,2.5908 0,0.16933 -0.29633,0.16933 -0.14394,0 -0.1778,-0.11853 -0.62654,-1.99814 -2.67547,-1.99814 h -1.71027 q -0.98213,0 -0.98213,1.016 v 3.76767 h 2.1336 q 0.84667,0 1.143,-0.38947 0.3048,-0.38946 0.42333,-1.38006 0,-0.13547 0.23707,-0.13547 0.23707,0 0.23707,0.13547 0,0.42333 -0.0508,1.0668 -0.0508,0.61806 -0.0508,1.00753 0,0.39793 0.0508,1.016 0.0508,0.6604 0.0508,1.08373 0,0.13547 -0.23707,0.13547 -0.23707,0 -0.23707,-0.13547 -0.127,-1.03293 -0.44873,-1.4478 -0.31327,-0.41486 -1.1176,-0.41486 h -2.1336 v 4.1656 q 0,0.99906 0.98213,0.99906 h 1.84574 q 1.00753,0 1.99813,-0.65193 0.9906,-0.6604 1.45627,-1.64253 0.0339,-0.0762 0.14393,-0.0762 0.11853,0 0.21167,0.0677 0.0931,0.0593 0.0931,0.1524 z" />
      <path
         id="path1088"
         style="font-style:normal;font-variant:normal;font-weight:normal;font-stretch:normal;font-size:16.93333244px;font-family:'Hoefler Text';-inkscape-font-specification:'Hoefler Text, Normal';font-variant-ligatures:normal;font-variant-caps:normal;font-variant-numeric:normal;font-feature-settings:normal;text-align:center;letter-spacing:2.98449993px;writing-mode:lr-tb;text-anchor:middle;fill:#146d94;fill-opacity:1;stroke-width:2.11666656"
         d="m 125.54875,258.09724 q 0,0.33866 -0.21166,0.57573 -0.2032,0.23707 -0.49954,0.23707 -0.37253,0 -0.7366,-0.24554 -0.28786,-0.19473 -0.49953,-0.19473 -0.55033,0 -1.13453,0.64347 v 3.81 q 0,0.7366 0.254,1.03293 0.254,0.28787 1.08373,0.39793 0.13547,0.0169 0.13547,0.2286 0,0.23707 -0.13547,0.23707 -0.34713,0 -0.98213,-0.0508 -0.70274,-0.0508 -1.1176,-0.0508 -0.42334,0 -1.02447,0.0508 -0.54187,0.0508 -0.889,0.0508 -0.13547,0 -0.13547,-0.23707 0,-0.21166 0.13547,-0.2286 0.7366,-0.0931 0.9398,-0.34713 0.21167,-0.254 0.21167,-1.08373 v -3.13267 q 0,-0.67733 -0.1778,-0.889 -0.16934,-0.21167 -0.77047,-0.2794 -0.13547,0 -0.13547,-0.22013 0,-0.2032 0.13547,-0.2032 0.8382,-0.21167 1.38007,-0.46567 0.55033,-0.26247 0.71966,-0.44873 0.1016,-0.1016 0.2032,-0.1016 0.23707,0 0.23707,0.13546 l -0.0677,1.0668 q 0.67733,-0.62653 1.15993,-0.88053 0.49107,-0.254 0.97367,-0.254 0.38946,0 0.66886,0.254 0.2794,0.254 0.2794,0.59267 z" />
      <path
         id="path1090"
         style="font-style:normal;font-variant:normal;font-weight:normal;font-stretch:normal;font-size:16.93333244px;font-family:'Hoefler Text';-inkscape-font-specification:'Hoefler Text, Normal';font-variant-ligatures:normal;font-variant-caps:normal;font-variant-numeric:normal;font-feature-settings:normal;text-align:center;letter-spacing:2.98449993px;writing-mode:lr-tb;text-anchor:middle;fill:#146d94;fill-opacity:1;stroke-width:2.11666656"
         d="m 134.45992,262.63537 q 0,1.03293 -0.8128,1.73567 -0.8128,0.70273 -1.96427,0.70273 -0.4064,0 -1.25306,-0.1778 -0.635,-0.127 -0.8636,-0.127 -0.0677,-0.59267 -0.31327,-1.8034 0,-0.127 0.24553,-0.127 0.2032,0 0.24554,0.13547 0.19473,0.62653 0.77046,1.0922 0.57574,0.46566 1.18534,0.46566 0.635,0 0.98213,-0.34713 0.3556,-0.34713 0.3556,-0.97367 0,-0.39793 -0.29633,-0.70273 -0.28787,-0.3048 -1.26154,-0.75353 -1.27846,-0.5842 -1.69333,-1.10067 -0.4064,-0.51647 -0.4064,-1.23613 0,-0.889 0.77047,-1.524 0.77046,-0.64347 1.82033,-0.64347 0.44027,0 1.23613,0.1524 0.44027,0.0847 0.57574,0.0847 0.0254,0.99906 0.11006,1.7018 0,0.127 -0.24553,0.127 -0.21167,0 -0.23707,-0.13547 -0.0931,-0.61807 -0.46566,-0.99907 -0.37254,-0.38946 -0.889,-0.38946 -1.3208,0 -1.3208,1.15146 0,0.38947 0.31326,0.71967 0.31327,0.3302 1.36314,0.85513 1.25306,0.62654 1.651,1.08374 0.39793,0.4572 0.39793,1.03293 z" />
      <path
         id="path1092"
         style="font-style:normal;font-variant:normal;font-weight:normal;font-stretch:normal;font-size:16.93333244px;font-family:'Hoefler Text';-inkscape-font-specification:'Hoefler Text, Normal';font-variant-ligatures:normal;font-variant-caps:normal;font-variant-numeric:normal;font-feature-settings:normal;text-align:center;letter-spacing:2.98449993px;writing-mode:lr-tb;text-anchor:middle;fill:#146d94;fill-opacity:1;stroke-width:2.11666656"
         d="m 143.82829,258.0803 q 0,0.4572 -0.22014,0.4572 l -2.52306,-0.0677 v 4.064 q 0,1.59173 1.13453,1.59173 0.70273,0 1.27847,-0.3302 0.0677,0 0.11853,0.0931 0.0593,0.0847 0.0593,0.18626 0,0.21167 -0.635,0.57574 -0.62654,0.3556 -1.41394,0.3556 -0.9652,0 -1.54093,-0.5842 -0.57573,-0.59267 -0.57573,-1.55787 v -0.0762 l 0.0339,-4.1148 q 0,-0.23707 -0.2032,-0.23707 h -0.64346 q -0.18627,0 -0.18627,-0.22013 0,-0.16933 0.1524,-0.254 1.17687,-0.69427 2.04893,-1.9558 0.0931,-0.13547 0.23707,-0.13547 0.23707,0 0.23707,0.13547 l -0.0677,1.61713 h 2.4892 q 0.22014,0 0.22014,0.4572 z" />
      <path
         id="path1094"
         style="font-style:normal;font-variant:normal;font-weight:normal;font-stretch:normal;font-size:16.93333244px;font-family:'Hoefler Text';-inkscape-font-specification:'Hoefler Text, Normal';font-variant-ligatures:normal;font-variant-caps:normal;font-variant-numeric:normal;font-feature-settings:normal;text-align:center;letter-spacing:2.98449993px;writing-mode:lr-tb;text-anchor:middle;fill:#146d94;fill-opacity:1;stroke-width:2.11666656"
         d="m 155.88057,264.26097 q 0,0.1778 -0.13546,0.19473 -1.54094,0.16934 -2.1082,0.59267 -0.11854,0.0931 -0.23707,0.0931 -0.16933,0 -0.16933,-0.13546 l 0.0677,-1.0668 q -1.25307,1.13453 -2.26907,1.13453 -1.15993,0 -1.81186,-0.65193 -0.64347,-0.6604 -0.64347,-1.78647 v -3.16653 q 0,-0.75354 -0.19473,-0.99907 -0.19474,-0.24553 -0.77047,-0.24553 -0.11007,0 -0.24553,0.008 -0.127,0 -0.127,-0.22013 0,-0.27093 0.13546,-0.27093 0.98214,0 2.57387,-0.381 0.1524,0 0.1524,0.21166 v 4.65667 q 0,0.95673 0.36407,1.397 0.36406,0.4318 1.143,0.4318 0.49953,0 0.88053,-0.18627 0.381,-0.18626 0.8128,-0.6604 v -3.74226 q 0,-0.74507 -0.2032,-0.9906 -0.19473,-0.254 -0.7874,-0.254 -0.1016,0 -0.23707,0.008 -0.127,0 -0.127,-0.22013 0,-0.27093 0.13547,-0.27093 0.98213,0 2.57387,-0.381 0.1524,0 0.1524,0.21166 v 5.40174 q 0,0.5842 0.16086,0.7874 0.16934,0.19473 0.77894,0.2794 0.13546,0 0.13546,0.22013 z" />
    </g>
  </g>
</svg>
